<?xml version="1.0" encoding="UTF-8" standalone="no"?>
<!DOCTYPE svg PUBLIC "-//W3C//DTD SVG 1.1//EN"
 "http://www.w3.org/Graphics/SVG/1.1/DTD/svg11.dtd">
<!-- Generated by graphviz version 2.26.3 (20100126.1600)
 -->
<!-- Title: controllers_diagram Pages: 1 -->
<svg width="659pt" height="528pt"
 viewBox="0.00 0.00 659.00 528.00" xmlns="http://www.w3.org/2000/svg" xmlns:xlink="http://www.w3.org/1999/xlink">
<g id="graph1" class="graph" transform="scale(1 1) rotate(0) translate(4 524)">
<title>controllers_diagram</title>
<polygon fill="white" stroke="white" points="-4,5 -4,-524 656,-524 656,5 -4,5"/>
<!-- _diagram_info -->
<g id="node1" class="node"><title>_diagram_info</title>
<text text-anchor="start" x="408" y="-173.3" font-family="Times Roman,serif" font-size="13.00">Controllers diagram</text>
<text text-anchor="start" x="408" y="-156.3" font-family="Times Roman,serif" font-size="13.00">Date: Sep 11 2012 &#45; 19:41</text>
<text text-anchor="start" x="408" y="-139.3" font-family="Times Roman,serif" font-size="13.00">Migration version: 20120911140347</text>
<text text-anchor="start" x="408" y="-122.3" font-family="Times Roman,serif" font-size="13.00">Generated by RailRoady 1.0.8</text>
<text text-anchor="start" x="408" y="-105.3" font-family="Times Roman,serif" font-size="13.00">http://railroady.prestonlee.com</text>
</g>
<!-- AdminsController -->
<g id="node2" class="node"><title>AdminsController</title>
<polyline fill="none" stroke="black" points="127,-153.5 350,-153.5 "/>
<path fill="none" stroke="black" d="M350,-153.5C356,-153.5 362,-159.5 362,-165.5"/>
<polyline fill="none" stroke="black" points="362,-165.5 362,-315.5 "/>
<path fill="none" stroke="black" d="M362,-315.5C362,-321.5 356,-327.5 350,-327.5"/>
<polyline fill="none" stroke="black" points="350,-327.5 127,-327.5 "/>
<path fill="none" stroke="black" d="M127,-327.5C121,-327.5 115,-321.5 115,-315.5"/>
<polyline fill="none" stroke="black" points="115,-315.5 115,-165.5 "/>
<path fill="none" stroke="black" d="M115,-165.5C115,-159.5 121,-153.5 127,-153.5"/>
<text text-anchor="middle" x="238.5" y="-310.9" font-family="Times Roman,serif" font-size="14.00">AdminsController</text>
<polyline fill="none" stroke="black" points="115,-301.5 362,-301.5 "/>
<text text-anchor="start" x="123" y="-284.9" font-family="Times Roman,serif" font-size="14.00">_one_time_conditions_valid_150?</text>
<text text-anchor="start" x="123" y="-266.9" font-family="Times Roman,serif" font-size="14.00">add_user</text>
<text text-anchor="start" x="123" y="-248.9" font-family="Times Roman,serif" font-size="14.00">create</text>
<text text-anchor="start" x="123" y="-230.9" font-family="Times Roman,serif" font-size="14.00">device_info</text>
<text text-anchor="start" x="123" y="-212.9" font-family="Times Roman,serif" font-size="14.00">index</text>
<polyline fill="none" stroke="black" points="115,-203.5 362,-203.5 "/>
<polyline fill="none" stroke="black" points="115,-179.5 362,-179.5 "/>
<text text-anchor="start" x="123" y="-162.9" font-family="Times Roman,serif" font-size="14.00">_layout</text>
</g>
<!-- ApplicationController -->
<g id="node3" class="node"><title>ApplicationController</title>
<polyline fill="none" stroke="black" points="374,-362.5 588,-362.5 "/>
<path fill="none" stroke="black" d="M588,-362.5C594,-362.5 600,-368.5 600,-374.5"/>
<polyline fill="none" stroke="black" points="600,-374.5 600,-506.5 "/>
<path fill="none" stroke="black" d="M600,-506.5C600,-512.5 594,-518.5 588,-518.5"/>
<polyline fill="none" stroke="black" points="588,-518.5 374,-518.5 "/>
<path fill="none" stroke="black" d="M374,-518.5C368,-518.5 362,-512.5 362,-506.5"/>
<polyline fill="none" stroke="black" points="362,-506.5 362,-374.5 "/>
<path fill="none" stroke="black" d="M362,-374.5C362,-368.5 368,-362.5 374,-362.5"/>
<text text-anchor="middle" x="481" y="-501.9" font-family="Times Roman,serif" font-size="14.00">ApplicationController</text>
<polyline fill="none" stroke="black" points="362,-492.5 600,-492.5 "/>
<text text-anchor="start" x="370" y="-475.9" font-family="Times Roman,serif" font-size="14.00">_one_time_conditions_valid_76?</text>
<text text-anchor="start" x="370" y="-457.9" font-family="Times Roman,serif" font-size="14.00">should_be_login</text>
<polyline fill="none" stroke="black" points="362,-448.5 600,-448.5 "/>
<polyline fill="none" stroke="black" points="362,-424.5 600,-424.5 "/>
<text text-anchor="start" x="370" y="-407.9" font-family="Times Roman,serif" font-size="14.00">_layout</text>
<text text-anchor="start" x="370" y="-389.9" font-family="Times Roman,serif" font-size="14.00">current_admin</text>
<text text-anchor="start" x="370" y="-371.9" font-family="Times Roman,serif" font-size="14.00">current_admin_session</text>
</g>
<!-- AdminSessionsController -->
<g id="node4" class="node"><title>AdminSessionsController</title>
<polyline fill="none" stroke="black" points="146,-362.5 310,-362.5 "/>
<path fill="none" stroke="black" d="M310,-362.5C316,-362.5 322,-368.5 322,-374.5"/>
<polyline fill="none" stroke="black" points="322,-374.5 322,-488.5 "/>
<path fill="none" stroke="black" d="M322,-488.5C322,-494.5 316,-500.5 310,-500.5"/>
<polyline fill="none" stroke="black" points="310,-500.5 146,-500.5 "/>
<path fill="none" stroke="black" d="M146,-500.5C140,-500.5 134,-494.5 134,-488.5"/>
<polyline fill="none" stroke="black" points="134,-488.5 134,-374.5 "/>
<path fill="none" stroke="black" d="M134,-374.5C134,-368.5 140,-362.5 146,-362.5"/>
<text text-anchor="middle" x="228" y="-483.9" font-family="Times Roman,serif" font-size="14.00">AdminSessionsController</text>
<polyline fill="none" stroke="black" points="134,-474.5 322,-474.5 "/>
<text text-anchor="start" x="142" y="-457.9" font-family="Times Roman,serif" font-size="14.00">create</text>
<text text-anchor="start" x="142" y="-439.9" font-family="Times Roman,serif" font-size="14.00">destroy</text>
<text text-anchor="start" x="142" y="-421.9" font-family="Times Roman,serif" font-size="14.00">new</text>
<polyline fill="none" stroke="black" points="134,-412.5 322,-412.5 "/>
<polyline fill="none" stroke="black" points="134,-388.5 322,-388.5 "/>
<text text-anchor="start" x="142" y="-371.9" font-family="Times Roman,serif" font-size="14.00">_layout</text>
</g>
<!-- ApiController -->
<g id="node5" class="node"><title>ApiController</title>
<polyline fill="none" stroke="black" points="184,-1.5 267,-1.5 "/>
<path fill="none" stroke="black" d="M267,-1.5C273,-1.5 279,-7.5 279,-13.5"/>
<polyline fill="none" stroke="black" points="279,-13.5 279,-109.5 "/>
<path fill="none" stroke="black" d="M279,-109.5C279,-115.5 273,-121.5 267,-121.5"/>
<polyline fill="none" stroke="black" points="267,-121.5 184,-121.5 "/>
<path fill="none" stroke="black" d="M184,-121.5C178,-121.5 172,-115.5 172,-109.5"/>
<polyline fill="none" stroke="black" points="172,-109.5 172,-13.5 "/>
<path fill="none" stroke="black" d="M172,-13.5C172,-7.5 178,-1.5 184,-1.5"/>
<text text-anchor="middle" x="225.5" y="-104.9" font-family="Times Roman,serif" font-size="14.00">ApiController</text>
<polyline fill="none" stroke="black" points="172,-95.5 279,-95.5 "/>
<text text-anchor="start" x="180" y="-78.9" font-family="Times Roman,serif" font-size="14.00">create</text>
<text text-anchor="start" x="180" y="-60.9" font-family="Times Roman,serif" font-size="14.00">index</text>
<polyline fill="none" stroke="black" points="172,-51.5 279,-51.5 "/>
<polyline fill="none" stroke="black" points="172,-27.5 279,-27.5 "/>
<text text-anchor="start" x="180" y="-10.9" font-family="Times Roman,serif" font-size="14.00">_layout</text>
</g>
<!-- UsersController -->
<g id="node6" class="node"><title>UsersController</title>
<polyline fill="none" stroke="black" points="13,-1.5 113,-1.5 "/>
<path fill="none" stroke="black" d="M113,-1.5C119,-1.5 125,-7.5 125,-13.5"/>
<polyline fill="none" stroke="black" points="125,-13.5 125,-109.5 "/>
<path fill="none" stroke="black" d="M125,-109.5C125,-115.5 119,-121.5 113,-121.5"/>
<polyline fill="none" stroke="black" points="113,-121.5 13,-121.5 "/>
<path fill="none" stroke="black" d="M13,-121.5C7,-121.5 1,-115.5 1,-109.5"/>
<polyline fill="none" stroke="black" points="1,-109.5 1,-13.5 "/>
<path fill="none" stroke="black" d="M1,-13.5C1,-7.5 7,-1.5 13,-1.5"/>
<text text-anchor="middle" x="63" y="-104.9" font-family="Times Roman,serif" font-size="14.00">UsersController</text>
<polyline fill="none" stroke="black" points="1,-95.5 125,-95.5 "/>
<text text-anchor="start" x="9" y="-78.9" font-family="Times Roman,serif" font-size="14.00">set_password</text>
<text text-anchor="start" x="9" y="-60.9" font-family="Times Roman,serif" font-size="14.00">update</text>
<polyline fill="none" stroke="black" points="1,-51.5 125,-51.5 "/>
<polyline fill="none" stroke="black" points="1,-27.5 125,-27.5 "/>
<text text-anchor="start" x="9" y="-10.9" font-family="Times Roman,serif" font-size="14.00">_layout</text>
</g>
</g>
</svg>
