<?xml version="1.0" encoding="UTF-8" standalone="no"?>
<!DOCTYPE svg PUBLIC "-//W3C//DTD SVG 1.1//EN"
 "http://www.w3.org/Graphics/SVG/1.1/DTD/svg11.dtd">
<!-- Generated by graphviz version 2.26.3 (20100126.1600)
 -->
<!-- Title: models_diagram Pages: 1 -->
<svg width="942pt" height="496pt"
 viewBox="0.00 0.00 942.00 496.00" xmlns="http://www.w3.org/2000/svg" xmlns:xlink="http://www.w3.org/1999/xlink">
<g id="graph1" class="graph" transform="scale(1 1) rotate(0) translate(4 492)">
<title>models_diagram</title>
<polygon fill="white" stroke="white" points="-4,5 -4,-492 939,-492 939,5 -4,5"/>
<!-- _diagram_info -->
<g id="node1" class="node"><title>_diagram_info</title>
<text text-anchor="start" x="8" y="-410.8" font-family="Times Roman,serif" font-size="13.00">Models diagram</text>
<text text-anchor="start" x="8" y="-393.8" font-family="Times Roman,serif" font-size="13.00">Date: Sep 11 2012 &#45; 19:41</text>
<text text-anchor="start" x="8" y="-376.8" font-family="Times Roman,serif" font-size="13.00">Migration version: 20120911140347</text>
<text text-anchor="start" x="8" y="-359.8" font-family="Times Roman,serif" font-size="13.00">Generated by RailRoady 1.0.8</text>
<text text-anchor="start" x="8" y="-342.8" font-family="Times Roman,serif" font-size="13.00">http://railroady.prestonlee.com</text>
</g>
<!-- DeviceInfo -->
<g id="node2" class="node"><title>DeviceInfo</title>
<polyline fill="none" stroke="black" points="279.5,-309 420.5,-309 "/>
<path fill="none" stroke="black" d="M420.5,-309C426.5,-309 432.5,-315 432.5,-321"/>
<polyline fill="none" stroke="black" points="432.5,-321 432.5,-439 "/>
<path fill="none" stroke="black" d="M432.5,-439C432.5,-445 426.5,-451 420.5,-451"/>
<polyline fill="none" stroke="black" points="420.5,-451 279.5,-451 "/>
<path fill="none" stroke="black" d="M279.5,-451C273.5,-451 267.5,-445 267.5,-439"/>
<polyline fill="none" stroke="black" points="267.5,-439 267.5,-321 "/>
<path fill="none" stroke="black" d="M267.5,-321C267.5,-315 273.5,-309 279.5,-309"/>
<text text-anchor="middle" x="350" y="-434.4" font-family="Times Roman,serif" font-size="14.00">DeviceInfo</text>
<polyline fill="none" stroke="black" points="267.5,-425 432.5,-425 "/>
<text text-anchor="start" x="275.5" y="-408.4" font-family="Times Roman,serif" font-size="14.00">id :integer</text>
<text text-anchor="start" x="275.5" y="-390.4" font-family="Times Roman,serif" font-size="14.00">device_id :string</text>
<text text-anchor="start" x="275.5" y="-372.4" font-family="Times Roman,serif" font-size="14.00">device_name :string</text>
<text text-anchor="start" x="275.5" y="-354.4" font-family="Times Roman,serif" font-size="14.00">qr_code :string</text>
<text text-anchor="start" x="275.5" y="-336.4" font-family="Times Roman,serif" font-size="14.00">created_at :datetime</text>
<text text-anchor="start" x="275.5" y="-318.4" font-family="Times Roman,serif" font-size="14.00">updated_at :datetime</text>
</g>
<!-- User -->
<g id="node4" class="node"><title>User</title>
<polyline fill="none" stroke="black" points="224.5,-75 365.5,-75 "/>
<path fill="none" stroke="black" d="M365.5,-75C371.5,-75 377.5,-81 377.5,-87"/>
<polyline fill="none" stroke="black" points="377.5,-87 377.5,-223 "/>
<path fill="none" stroke="black" d="M377.5,-223C377.5,-229 371.5,-235 365.5,-235"/>
<polyline fill="none" stroke="black" points="365.5,-235 224.5,-235 "/>
<path fill="none" stroke="black" d="M224.5,-235C218.5,-235 212.5,-229 212.5,-223"/>
<polyline fill="none" stroke="black" points="212.5,-223 212.5,-87 "/>
<path fill="none" stroke="black" d="M212.5,-87C212.5,-81 218.5,-75 224.5,-75"/>
<text text-anchor="middle" x="295" y="-218.4" font-family="Times Roman,serif" font-size="14.00">User</text>
<polyline fill="none" stroke="black" points="212.5,-209 377.5,-209 "/>
<text text-anchor="start" x="220.5" y="-192.4" font-family="Times Roman,serif" font-size="14.00">id :integer</text>
<text text-anchor="start" x="220.5" y="-174.4" font-family="Times Roman,serif" font-size="14.00">username :string</text>
<text text-anchor="start" x="220.5" y="-156.4" font-family="Times Roman,serif" font-size="14.00">email :string</text>
<text text-anchor="start" x="220.5" y="-138.4" font-family="Times Roman,serif" font-size="14.00">password :string</text>
<text text-anchor="start" x="220.5" y="-120.4" font-family="Times Roman,serif" font-size="14.00">token :string</text>
<text text-anchor="start" x="220.5" y="-102.4" font-family="Times Roman,serif" font-size="14.00">created_at :datetime</text>
<text text-anchor="start" x="220.5" y="-84.4" font-family="Times Roman,serif" font-size="14.00">updated_at :datetime</text>
</g>
<!-- DeviceInfo&#45;&gt;User -->
<g id="edge4" class="edge"><title>DeviceInfo&#45;&gt;User</title>
<path fill="none" stroke="#ad543b" d="M330.213,-299.055C325.923,-281.501 321.359,-262.833 316.989,-244.956"/>
<polygon fill="#ad543b" stroke="#ad543b" points="330.223,-299.095 328.226,-309.877 331.41,-303.952 332.598,-308.809 332.598,-308.809 332.598,-308.809 331.41,-303.952 336.969,-307.74 330.223,-299.095 330.223,-299.095"/>
<polygon fill="#ad543b" stroke="#ad543b" points="316.959,-244.833 318.956,-234.05 315.772,-239.976 314.585,-235.119 314.585,-235.119 314.585,-235.119 315.772,-239.976 310.213,-236.187 316.959,-244.833 316.959,-244.833"/>
</g>
<!-- Borrower -->
<g id="node7" class="node"><title>Borrower</title>
<ellipse fill="none" stroke="black" cx="350" cy="-19" rx="57.9828" ry="18.3848"/>
<text text-anchor="middle" x="350" y="-15.4" font-family="Times Roman,serif" font-size="14.00">Borrower</text>
</g>
<!-- DeviceInfo&#45;&gt;Borrower -->
<g id="edge2" class="edge"><title>DeviceInfo&#45;&gt;Borrower</title>
<path fill="none" stroke="#94e250" d="M376.504,-300.83C393.418,-238.144 408.353,-148.967 386,-74 382.967,-63.8292 377.387,-53.7895 371.51,-45.1281"/>
<ellipse fill="none" stroke="#94e250" cx="375.389" cy="-304.869" rx="4.00001" ry="4.00001"/>
<polygon fill="#94e250" stroke="#94e250" points="371.474,-45.0782 369.266,-34.337 368.546,-41.0252 365.618,-36.9722 365.618,-36.9722 365.618,-36.9722 368.546,-41.0252 361.971,-39.6074 371.474,-45.0782 371.474,-45.0782"/>
</g>
<!-- AdminSession -->
<g id="node3" class="node"><title>AdminSession</title>
<polygon fill="none" stroke="black" points="524,-129 524,-181 636,-181 636,-129 524,-129"/>
<text text-anchor="middle" x="580" y="-164.4" font-family="Times Roman,serif" font-size="14.00">AdminSession</text>
<polyline fill="none" stroke="black" points="524,-155 636,-155 "/>
<text text-anchor="middle" x="580" y="-138.4" font-family="Times Roman,serif" font-size="14.00"> </text>
</g>
<!-- User&#45;&gt;Borrower -->
<g id="edge8" class="edge"><title>User&#45;&gt;Borrower</title>
<path fill="none" stroke="#303d8b" d="M330.574,-67.0345C333.407,-60.0302 336.114,-53.3361 338.56,-47.2874"/>
<ellipse fill="none" stroke="#303d8b" cx="328.97" cy="-71.0006" rx="4.00001" ry="4.00001"/>
<polygon fill="#303d8b" stroke="#303d8b" points="338.657,-47.0469 346.578,-39.4635 340.532,-42.4116 342.407,-37.7763 342.407,-37.7763 342.407,-37.7763 340.532,-42.4116 338.235,-36.0892 338.657,-47.0469 338.657,-47.0469"/>
</g>
<!-- Admin -->
<g id="node5" class="node"><title>Admin</title>
<polyline fill="none" stroke="black" points="739.5,-273 922.5,-273 "/>
<path fill="none" stroke="black" d="M922.5,-273C928.5,-273 934.5,-279 934.5,-285"/>
<polyline fill="none" stroke="black" points="934.5,-285 934.5,-475 "/>
<path fill="none" stroke="black" d="M934.5,-475C934.5,-481 928.5,-487 922.5,-487"/>
<polyline fill="none" stroke="black" points="922.5,-487 739.5,-487 "/>
<path fill="none" stroke="black" d="M739.5,-487C733.5,-487 727.5,-481 727.5,-475"/>
<polyline fill="none" stroke="black" points="727.5,-475 727.5,-285 "/>
<path fill="none" stroke="black" d="M727.5,-285C727.5,-279 733.5,-273 739.5,-273"/>
<text text-anchor="middle" x="831" y="-470.4" font-family="Times Roman,serif" font-size="14.00">Admin</text>
<polyline fill="none" stroke="black" points="727.5,-461 934.5,-461 "/>
<text text-anchor="start" x="735.5" y="-444.4" font-family="Times Roman,serif" font-size="14.00">id :integer</text>
<text text-anchor="start" x="735.5" y="-426.4" font-family="Times Roman,serif" font-size="14.00">email :string</text>
<text text-anchor="start" x="735.5" y="-408.4" font-family="Times Roman,serif" font-size="14.00">encrypted_password :string</text>
<text text-anchor="start" x="735.5" y="-390.4" font-family="Times Roman,serif" font-size="14.00">password_salt :string</text>
<text text-anchor="start" x="735.5" y="-372.4" font-family="Times Roman,serif" font-size="14.00">persistence_token :string</text>
<text text-anchor="start" x="735.5" y="-354.4" font-family="Times Roman,serif" font-size="14.00">single_access_token :string</text>
<text text-anchor="start" x="735.5" y="-336.4" font-family="Times Roman,serif" font-size="14.00">perishable_token :string</text>
<text text-anchor="start" x="735.5" y="-318.4" font-family="Times Roman,serif" font-size="14.00">login_count :integer</text>
<text text-anchor="start" x="735.5" y="-300.4" font-family="Times Roman,serif" font-size="14.00">created_at :datetime</text>
<text text-anchor="start" x="735.5" y="-282.4" font-family="Times Roman,serif" font-size="14.00">updated_at :datetime</text>
</g>
<!-- Authlogic::Session::Base -->
<g id="node9" class="node"><title>Authlogic::Session::Base</title>
<ellipse fill="none" stroke="black" cx="580" cy="-380" rx="130.108" ry="18.3848"/>
<text text-anchor="middle" x="580" y="-376.4" font-family="Times Roman,serif" font-size="14.00">Authlogic::Session::Base</text>
</g>
<!-- Authlogic::Session::Base&#45;&gt;AdminSession -->
<g id="edge6" class="edge"><title>Authlogic::Session::Base&#45;&gt;AdminSession</title>
<path fill="none" stroke="black" d="M580,-361.204C580,-321.069 580,-226.923 580,-181.047"/>
</g>
</g>
</svg>
