<?xml version="1.0" encoding="UTF-8" standalone="no"?>
<!DOCTYPE svg PUBLIC "-//W3C//DTD SVG 1.1//EN"
 "http://www.w3.org/Graphics/SVG/1.1/DTD/svg11.dtd">
<!-- Generated by graphviz version 2.26.3 (20100126.1600)
 -->
<!-- Title: models_diagram Pages: 1 -->
<svg width="782pt" height="250pt"
 viewBox="0.00 0.00 782.00 250.00" xmlns="http://www.w3.org/2000/svg" xmlns:xlink="http://www.w3.org/1999/xlink">
<g id="graph1" class="graph" transform="scale(1 1) rotate(0) translate(4 246)">
<title>models_diagram</title>
<polygon fill="white" stroke="white" points="-4,5 -4,-246 779,-246 779,5 -4,5"/>
<!-- _diagram_info -->
<g id="node1" class="node"><title>_diagram_info</title>
<text text-anchor="start" x="8" y="-225.8" font-family="Times Roman,serif" font-size="13.00">Models diagram</text>
<text text-anchor="start" x="8" y="-208.8" font-family="Times Roman,serif" font-size="13.00">Date: Sep 11 2012 &#45; 19:41</text>
<text text-anchor="start" x="8" y="-191.8" font-family="Times Roman,serif" font-size="13.00">Migration version: 20120911140347</text>
<text text-anchor="start" x="8" y="-174.8" font-family="Times Roman,serif" font-size="13.00">Generated by RailRoady 1.0.8</text>
<text text-anchor="start" x="8" y="-157.8" font-family="Times Roman,serif" font-size="13.00">http://railroady.prestonlee.com</text>
</g>
<!-- DeviceInfo -->
<g id="node2" class="node"><title>DeviceInfo</title>
<ellipse fill="none" stroke="black" cx="331" cy="-195" rx="62.9325" ry="18.3848"/>
<text text-anchor="middle" x="331" y="-191.4" font-family="Times Roman,serif" font-size="14.00">DeviceInfo</text>
</g>
<!-- User -->
<g id="node4" class="node"><title>User</title>
<ellipse fill="none" stroke="black" cx="300" cy="-93" rx="33.9411" ry="18.3848"/>
<text text-anchor="middle" x="300" y="-89.4" font-family="Times Roman,serif" font-size="14.00">User</text>
</g>
<!-- DeviceInfo&#45;&gt;User -->
<g id="edge4" class="edge"><title>DeviceInfo&#45;&gt;User</title>
<path fill="none" stroke="#251c74" d="M322.353,-166.548C318.056,-152.411 312.88,-135.379 308.591,-121.266"/>
<polygon fill="#251c74" stroke="#251c74" points="322.406,-166.724 321.009,-177.6 323.86,-171.508 325.314,-176.292 325.314,-176.292 325.314,-176.292 323.86,-171.508 329.62,-174.983 322.406,-166.724 322.406,-166.724"/>
<polygon fill="#251c74" stroke="#251c74" points="308.558,-121.158 309.955,-110.281 307.104,-116.374 305.65,-111.59 305.65,-111.59 305.65,-111.59 307.104,-116.374 301.344,-112.898 308.558,-121.158 308.558,-121.158"/>
</g>
<!-- Borrower -->
<g id="node7" class="node"><title>Borrower</title>
<ellipse fill="none" stroke="black" cx="331" cy="-19" rx="57.9828" ry="18.3848"/>
<text text-anchor="middle" x="331" y="-15.4" font-family="Times Roman,serif" font-size="14.00">Borrower</text>
</g>
<!-- DeviceInfo&#45;&gt;Borrower -->
<g id="edge2" class="edge"><title>DeviceInfo&#45;&gt;Borrower</title>
<path fill="none" stroke="#8b4802" d="M336.79,-168.433C341.385,-143.908 346.502,-106.48 343,-74 342.061,-65.2958 340.31,-55.9488 338.431,-47.4746"/>
<ellipse fill="none" stroke="#8b4802" cx="335.97" cy="-172.615" rx="4.00001" ry="4.00001"/>
<polygon fill="#8b4802" stroke="#8b4802" points="338.414,-47.4059 340.499,-36.64 337.267,-42.5393 336.119,-37.6728 336.119,-37.6728 336.119,-37.6728 337.267,-42.5393 331.739,-38.7056 338.414,-47.4059 338.414,-47.4059"/>
</g>
<!-- AdminSession -->
<g id="node3" class="node"><title>AdminSession</title>
<polygon fill="none" stroke="black" points="598,-111 486,-111 486,-75 598,-75 598,-111"/>
<text text-anchor="middle" x="542" y="-89.4" font-family="Times Roman,serif" font-size="14.00">AdminSession</text>
</g>
<!-- User&#45;&gt;Borrower -->
<g id="edge8" class="edge"><title>User&#45;&gt;Borrower</title>
<path fill="none" stroke="#cec8db" d="M310.835,-67.1355C313.601,-60.5337 316.585,-53.4104 319.388,-46.7198"/>
<ellipse fill="none" stroke="#cec8db" cx="309.208" cy="-71.0185" rx="4.00002" ry="4.00002"/>
<polygon fill="#cec8db" stroke="#cec8db" points="319.454,-46.5616 327.468,-39.0769 321.386,-41.9499 323.318,-37.3382 323.318,-37.3382 323.318,-37.3382 321.386,-41.9499 319.167,-35.5994 319.454,-46.5616 319.454,-46.5616"/>
</g>
<!-- Admin -->
<g id="node5" class="node"><title>Admin</title>
<ellipse fill="none" stroke="black" cx="732" cy="-195" rx="41.9273" ry="18.3848"/>
<text text-anchor="middle" x="732" y="-191.4" font-family="Times Roman,serif" font-size="14.00">Admin</text>
</g>
<!-- Authlogic::Session::Base -->
<g id="node9" class="node"><title>Authlogic::Session::Base</title>
<ellipse fill="none" stroke="black" cx="542" cy="-195" rx="130.108" ry="18.3848"/>
<text text-anchor="middle" x="542" y="-191.4" font-family="Times Roman,serif" font-size="14.00">Authlogic::Session::Base</text>
</g>
<!-- Authlogic::Session::Base&#45;&gt;AdminSession -->
<g id="edge6" class="edge"><title>Authlogic::Session::Base&#45;&gt;AdminSession</title>
<path fill="none" stroke="black" d="M542,-176.292C542,-157.773 542,-129.603 542,-111.247"/>
</g>
</g>
</svg>
